<?xml version="1.0" standalone="no"?>
<!DOCTYPE svg PUBLIC "-//W3C//DTD SVG 20010904//EN"
 "http://www.w3.org/TR/2001/REC-SVG-20010904/DTD/svg10.dtd">
<svg version="1.0" xmlns="http://www.w3.org/2000/svg"
 width="321.000000pt" height="321.000000pt" viewBox="0 0 321.000000 321.000000"
 preserveAspectRatio="xMidYMid meet">
<metadata>
Created by potrace 1.14, written by Peter Selinger 2001-2017
</metadata>
<g transform="translate(0.000000,321.000000) scale(0.100000,-0.100000)"
fill="#000000" stroke="none">
<path d="M1105 3194 c-58 -9 -191 -56 -245 -87 -219 -123 -384 -350 -484 -668
-20 -63 -38 -123 -41 -134 -21 -99 -45 -232 -51 -285 -3 -36 -8 -67 -10 -70
-7 -14 -18 -229 -19 -370 l0 -155 32 -46 c17 -25 44 -54 59 -64 l27 -17 -7
-146 c-4 -80 -8 -155 -11 -166 -9 -46 -16 -116 -20 -212 -6 -121 12 -193 72
-292 93 -152 261 -265 443 -298 14 -2 34 -6 45 -9 11 -2 55 -7 98 -11 65 -5
94 -14 160 -48 165 -84 302 -116 482 -112 169 4 309 42 451 121 38 21 80 36
110 39 27 3 69 8 94 11 25 3 50 7 55 7 31 3 186 62 239 92 56 31 146 112 180
161 37 53 77 149 95 226 22 92 29 165 32 336 2 131 9 179 51 328 17 61 22 108
22 200 1 153 -8 212 -60 375 -10 30 -18 60 -20 65 -1 6 -6 28 -12 50 -6 22
-13 65 -17 95 l-5 55 40 27 c22 15 40 35 40 44 0 8 -13 35 -29 58 -39 57 -69
126 -116 266 -58 177 -107 260 -212 363 -143 140 -294 215 -528 263 -53 11
-318 13 -385 3 -36 -5 -83 -12 -105 -15 -22 -3 -43 -8 -47 -10 -4 -3 -38 3
-75 11 -68 16 -271 27 -328 19z"/>
</g>
</svg>
